<?xml version="1.0" standalone="no"?>
<!DOCTYPE svg PUBLIC "-//W3C//DTD SVG 20010904//EN"
 "http://www.w3.org/TR/2001/REC-SVG-20010904/DTD/svg10.dtd">
<svg version="1.0" xmlns="http://www.w3.org/2000/svg"
 width="700.000000pt" height="700.000000pt" viewBox="0 0 700.000000 700.000000"
 preserveAspectRatio="xMidYMid meet">
<metadata>
Created by potrace 1.11, written by Peter Selinger 2001-2013
</metadata>
<g transform="translate(0.000000,700.000000) scale(0.100000,-0.100000)"
fill="#000000" stroke="none">
<path d="M3288 6984 c-50 -27 -61 -65 -61 -206 l1 -128 -1077 -2 -1076 -3 -66
-32 c-77 -38 -126 -81 -169 -149 -64 -101 -63 -86 -63 -864 0 -522 3 -717 12
-750 37 -134 138 -240 269 -280 62 -19 94 -20 1116 -20 l1053 0 1 -115 c1
-112 0 -115 -21 -116 -12 0 -446 -1 -964 -1 -844 -1 -945 -3 -967 -17 -13 -9
-48 -38 -78 -66 -30 -27 -89 -81 -133 -120 -43 -38 -83 -75 -89 -80 -18 -18
-388 -350 -417 -375 -39 -35 -187 -168 -242 -220 -32 -30 -65 -59 -73 -63 -17
-10 -42 -56 -48 -90 -9 -50 12 -93 72 -148 72 -66 227 -208 256 -232 12 -10
39 -35 62 -55 113 -103 219 -199 234 -212 14 -12 131 -117 184 -165 107 -96
218 -197 246 -222 19 -18 42 -33 50 -34 8 0 445 -1 971 -1 l956 -1 1 -1069 0
-1069 26 -34 c49 -63 155 -55 191 15 13 25 15 162 15 1093 l0 1064 1213 0
c667 0 1235 3 1261 7 148 23 284 154 315 305 8 36 11 277 11 751 -1 772 1 753
-65 856 -42 65 -117 125 -192 155 l-58 23 -1235 2 c-679 1 -1238 3 -1242 3 -5
1 -8 53 -8 116 l0 115 1125 0 1125 0 58 53 c32 28 100 90 152 137 51 47 104
94 116 105 12 11 35 31 50 45 49 43 233 209 271 243 38 34 36 33 168 152 49
44 100 91 114 104 14 13 49 43 78 68 82 71 102 128 72 204 -9 22 -77 90 -183
182 -12 10 -34 31 -51 46 -59 53 -352 316 -429 385 -44 39 -106 96 -138 126
-33 30 -69 62 -81 73 -12 10 -53 46 -91 80 -38 34 -78 70 -89 80 -19 16 -88
17 -1144 17 l-1123 0 0 131 c0 115 -3 136 -20 164 -32 51 -99 68 -152 39z
m2327 -573 c6 0 22 -11 37 -24 35 -30 177 -158 197 -178 9 -8 79 -71 156 -139
77 -69 147 -131 155 -140 8 -8 35 -33 60 -54 25 -22 88 -78 140 -126 52 -48
111 -101 130 -118 l35 -32 -46 -42 c-25 -24 -81 -74 -124 -113 -43 -38 -83
-75 -89 -80 -10 -9 -138 -124 -251 -225 -21 -19 -64 -57 -94 -85 -31 -27 -60
-54 -67 -60 -6 -5 -51 -46 -99 -90 -48 -44 -99 -89 -112 -100 -23 -21 -25 -21
-2266 -20 -2177 0 -2245 1 -2278 19 -20 10 -46 35 -60 54 l-24 36 -3 694 c-2
681 -2 696 18 736 23 47 59 76 104 85 24 5 4446 7 4481 2z m317 -2344 c43 -19
74 -56 87 -102 12 -44 12 -1349 0 -1395 -5 -19 -19 -47 -32 -62 -54 -62 119
-58 -2352 -58 -1792 0 -2259 3 -2269 13 -7 6 -46 42 -87 78 -41 37 -86 77
-100 90 -54 49 -347 314 -559 504 -24 22 -67 61 -95 87 l-50 47 26 23 c14 13
61 55 105 95 43 39 90 81 104 93 14 12 45 40 70 63 25 23 85 78 135 122 49 44
96 87 105 95 17 16 172 155 200 180 9 8 47 42 84 75 38 33 74 62 82 65 7 3
1025 4 2261 4 2043 -1 2251 -3 2285 -17z"/>
</g>
</svg>
